<?xml version="1.0" encoding="UTF-8" standalone="no"?>
<!DOCTYPE svg PUBLIC "-//W3C//DTD SVG 1.1//EN"
 "http://www.w3.org/Graphics/SVG/1.1/DTD/svg11.dtd">
<!-- Generated by graphviz version 2.34.0 (20131025.0457)
 -->
<!-- Title: G Pages: 1 -->
<svg width="1126pt" height="114pt"
 viewBox="0.00 0.00 1126.00 114.00" xmlns="http://www.w3.org/2000/svg" xmlns:xlink="http://www.w3.org/1999/xlink">
<g id="graph0" class="graph" transform="scale(1 1) rotate(0) translate(4 110)">
<title>G</title>
<polygon fill="white" stroke="white" points="-4,4 -4,-110 1122,-110 1122,4 -4,4"/>
<!-- clone -->
<g id="node1" class="node"><title>clone</title>
<ellipse fill="none" stroke="black" cx="32" cy="-23" rx="31.8979" ry="18"/>
<text text-anchor="middle" x="32" y="-17.4" font-family="Times,serif" font-size="14.00">clone</text>
</g>
<!-- reset -->
<g id="node2" class="node"><title>reset</title>
<ellipse fill="none" stroke="black" cx="130" cy="-23" rx="29.0336" ry="18"/>
<text text-anchor="middle" x="130" y="-17.4" font-family="Times,serif" font-size="14.00">reset</text>
</g>
<!-- clone&#45;&gt;reset -->
<g id="edge1" class="edge"><title>clone&#45;&gt;reset</title>
<path fill="none" stroke="black" d="M64.1684,-23C72.5895,-23 81.8019,-23 90.5702,-23"/>
<polygon fill="black" stroke="black" points="90.5855,-26.5001 100.585,-23 90.5854,-19.5001 90.5855,-26.5001"/>
</g>
<!-- create branch -->
<g id="node3" class="node"><title>create branch</title>
<ellipse fill="none" stroke="black" cx="259" cy="-46" rx="62.5371" ry="18"/>
<text text-anchor="middle" x="259" y="-40.4" font-family="Times,serif" font-size="14.00">create branch</text>
</g>
<!-- reset&#45;&gt;create branch -->
<g id="edge2" class="edge"><title>reset&#45;&gt;create branch</title>
<path fill="none" stroke="black" d="M158.245,-27.9341C169.222,-29.922 182.373,-32.3037 195.468,-34.6754"/>
<polygon fill="black" stroke="black" points="194.972,-38.1423 205.435,-36.4804 196.219,-31.2543 194.972,-38.1423"/>
</g>
<!-- implement and commit -->
<g id="node4" class="node"><title>implement and commit</title>
<ellipse fill="none" stroke="black" cx="459" cy="-46" rx="100.726" ry="18"/>
<text text-anchor="middle" x="459" y="-40.4" font-family="Times,serif" font-size="14.00">implement and commit</text>
</g>
<!-- create branch&#45;&gt;implement and commit -->
<g id="edge3" class="edge"><title>create branch&#45;&gt;implement and commit</title>
<path fill="none" stroke="black" d="M321.834,-46C330.243,-46 339.071,-46 348.019,-46"/>
<polygon fill="black" stroke="black" points="348.158,-49.5001 358.158,-46 348.158,-42.5001 348.158,-49.5001"/>
</g>
<!-- push branch -->
<g id="node5" class="node"><title>push branch</title>
<ellipse fill="none" stroke="black" cx="654" cy="-88" rx="57.9359" ry="18"/>
<text text-anchor="middle" x="654" y="-82.4" font-family="Times,serif" font-size="14.00">push branch</text>
</g>
<!-- implement and commit&#45;&gt;push branch -->
<g id="edge4" class="edge"><title>implement and commit&#45;&gt;push branch</title>
<path fill="none" stroke="black" d="M523.73,-59.8688C547.163,-64.9682 573.521,-70.7041 596.295,-75.66"/>
<polygon fill="black" stroke="black" points="595.633,-79.0978 606.148,-77.8043 597.121,-72.2579 595.633,-79.0978"/>
</g>
<!-- create pr -->
<g id="node6" class="node"><title>create pr</title>
<ellipse fill="none" stroke="black" cx="793" cy="-88" rx="44.5775" ry="18"/>
<text text-anchor="middle" x="793" y="-82.4" font-family="Times,serif" font-size="14.00">create pr</text>
</g>
<!-- push branch&#45;&gt;create pr -->
<g id="edge5" class="edge"><title>push branch&#45;&gt;create pr</title>
<path fill="none" stroke="black" d="M712.307,-88C720.856,-88 729.644,-88 738.119,-88"/>
<polygon fill="black" stroke="black" points="738.264,-91.5001 748.264,-88 738.264,-84.5001 738.264,-91.5001"/>
</g>
<!-- cycle feedback -->
<g id="node7" class="node"><title>cycle feedback</title>
<ellipse fill="none" stroke="black" cx="943" cy="-46" rx="68.8343" ry="18"/>
<text text-anchor="middle" x="943" y="-40.4" font-family="Times,serif" font-size="14.00">cycle feedback</text>
</g>
<!-- create pr&#45;&gt;cycle feedback -->
<g id="edge6" class="edge"><title>create pr&#45;&gt;cycle feedback</title>
<path fill="none" stroke="black" d="M829.827,-77.833C846.728,-73.0367 867.288,-67.2022 886.166,-61.8448"/>
<polygon fill="black" stroke="black" points="887.192,-65.1919 895.857,-59.0947 885.281,-58.4578 887.192,-65.1919"/>
</g>
<!-- cycle feedback&#45;&gt;implement and commit -->
<g id="edge9" class="edge"><title>cycle feedback&#45;&gt;implement and commit</title>
<path fill="none" stroke="black" d="M874.063,-46C795.061,-46 663.553,-46 569.948,-46"/>
<polygon fill="black" stroke="black" points="569.871,-42.5001 559.871,-46 569.871,-49.5001 569.871,-42.5001"/>
</g>
<!-- merge -->
<g id="node8" class="node"><title>merge</title>
<ellipse fill="none" stroke="black" cx="1083" cy="-23" rx="34.9899" ry="18"/>
<text text-anchor="middle" x="1083" y="-17.4" font-family="Times,serif" font-size="14.00">merge</text>
</g>
<!-- cycle feedback&#45;&gt;merge -->
<g id="edge7" class="edge"><title>cycle feedback&#45;&gt;merge</title>
<path fill="none" stroke="black" d="M1001.33,-36.4457C1014.04,-34.3265 1027.3,-32.1166 1039.31,-30.115"/>
<polygon fill="black" stroke="black" points="1040.21,-33.5137 1049.5,-28.4172 1039.06,-26.6089 1040.21,-33.5137"/>
</g>
<!-- merge&#45;&gt;reset -->
<g id="edge8" class="edge"><title>merge&#45;&gt;reset</title>
<path fill="none" stroke="black" d="M1048.81,-18.6197C995.285,-11.9465 886.544,-3.55271e-15 794,-0 458,-0 458,-0 458,-0 353.309,-6.66134e-15 230.228,-11.876 169.244,-18.5605"/>
<polygon fill="black" stroke="black" points="168.5,-15.1215 158.948,-19.7047 169.273,-22.0786 168.5,-15.1215"/>
</g>
</g>
</svg>
